<svg id="Group_40" data-name="Group 40" xmlns="http://www.w3.org/2000/svg" xmlns:xlink="http://www.w3.org/1999/xlink" width="148.895" height="171.453" viewBox="0 0 148.895 171.453">
  <defs>
    <clipPath id="clip-path">
      <rect id="Rectangle_29" data-name="Rectangle 29" width="148.895" height="171.453" fill="#fff"/>
    </clipPath>
  </defs>
  <g id="Group_39" data-name="Group 39" clip-path="url(#clip-path)">
    <path id="Path_3" data-name="Path 3" d="M5.386,38.286a3.938,3.938,0,0,0-1.057,2.882,3.88,3.88,0,0,0,1.511,2.7L16.968,53.32l-1.45,1.708L0,41.847,1.425,40.17l1.646,1.4a4.158,4.158,0,0,1-.236-.8,4,4,0,0,1-.093-.787,4.054,4.054,0,0,1,.309-1.785,6.32,6.32,0,0,1,1.03-1.644L5.7,37.921Z" fill="#fff"/>
    <path id="Path_4" data-name="Path 4" d="M38.109,36.123l-.928-1.589a3.141,3.141,0,0,1-.046.953,3.715,3.715,0,0,1-.236.786,4.36,4.36,0,0,1-.606,1.025,3.85,3.85,0,0,1-1.1.9,4.338,4.338,0,0,1-3.484.458,4.691,4.691,0,0,1-1.7-1.046,9.186,9.186,0,0,1-1.76-2.261A7.772,7.772,0,0,1,27.3,32.87,4.809,4.809,0,0,1,27.42,30.5a5.205,5.205,0,0,1,.937-1.728,6.767,6.767,0,0,1,1.832-1.463l2-1.169L30.358,23a4.135,4.135,0,0,0-1.905-1.876,2.5,2.5,0,0,0-2.267.282,2.422,2.422,0,0,0-.805.724,2.814,2.814,0,0,0-.4.859,3.262,3.262,0,0,0-.02,1.355,5.249,5.249,0,0,0,.657,1.562l-1.935,1.129a8.313,8.313,0,0,1-.87-2.086,4.432,4.432,0,0,1,.031-2.287,4.58,4.58,0,0,1,.809-1.63A5.241,5.241,0,0,1,25.2,19.714a4.759,4.759,0,0,1,3.789-.729,4.886,4.886,0,0,1,1.765.961,7.525,7.525,0,0,1,1.581,2l7.641,13.094ZM33.08,27.665l-1.935,1.129a4.248,4.248,0,0,0-1.091.868,3.149,3.149,0,0,0-.607,1.142,3.394,3.394,0,0,0,0,1.595,6.121,6.121,0,0,0,.715,1.782,5.44,5.44,0,0,0,2.059,2.179,2.363,2.363,0,0,0,2.41-.155,2.581,2.581,0,0,0,1.341-1.987,4.2,4.2,0,0,0-.639-2.684Z" fill="#fff"/>
    <path id="Path_5" data-name="Path 5" d="M56.042,10.433,59.491,28.71l-2.2.416L53.84,10.849l-2.437.459-.326-1.729,2.437-.46L53,6.407a5.332,5.332,0,0,1,.73-4.33A4.424,4.424,0,0,1,55.46.671,9.621,9.621,0,0,1,57.613,0l.379,2.005q-3.42.645-2.789,3.987L55.715,8.7l3.419-.646.327,1.729Z" fill="#fff"/>
    <path id="Path_6" data-name="Path 6" d="M86.151,28.813,86.433,27a3.194,3.194,0,0,1-.636.711,3.828,3.828,0,0,1-.679.462A4.442,4.442,0,0,1,84,28.582a3.865,3.865,0,0,1-1.417,0,4.338,4.338,0,0,1-2.993-1.84,4.707,4.707,0,0,1-.66-1.883A9.191,9.191,0,0,1,78.99,22a7.77,7.77,0,0,1,.816-2.524,4.8,4.8,0,0,1,1.587-1.758,5.215,5.215,0,0,1,1.817-.751,6.767,6.767,0,0,1,2.345.019l2.292.355.557-3.6a4.133,4.133,0,0,0-.3-2.657,2.5,2.5,0,0,0-1.938-1.211,2.432,2.432,0,0,0-1.081.055,2.8,2.8,0,0,0-.853.415,3.252,3.252,0,0,0-.869,1.039,5.265,5.265,0,0,0-.475,1.627l-2.213-.343a8.316,8.316,0,0,1,.639-2.168,4.421,4.421,0,0,1,1.466-1.756,4.558,4.558,0,0,1,1.655-.756,5.234,5.234,0,0,1,2.031-.05,4.759,4.759,0,0,1,3.4,1.822,4.872,4.872,0,0,1,.765,1.859,7.532,7.532,0,0,1-.03,2.545L88.286,29.144Zm1.427-9.736-2.214-.343a4.248,4.248,0,0,0-1.394-.013,3.13,3.13,0,0,0-1.191.5,3.4,3.4,0,0,0-1,1.242A6.117,6.117,0,0,0,81.21,22.3a5.433,5.433,0,0,0,.225,2.989,2.362,2.362,0,0,0,1.969,1.4,2.582,2.582,0,0,0,2.294-.7A4.206,4.206,0,0,0,86.892,23.5Z" fill="#fff"/>
    <path id="Path_7" data-name="Path 7" d="M111.021,27.243a47.387,47.387,0,0,0-2.234,4.23,4.523,4.523,0,0,0-.484,2.561,2.442,2.442,0,0,0,.4.991,2.628,2.628,0,0,0,.909.825,3.567,3.567,0,0,0,1.078.414,2.191,2.191,0,0,0,1.124-.067,4.054,4.054,0,0,0,2.2-2.055l1.9,1.1a7.785,7.785,0,0,1-1.534,1.978,4.637,4.637,0,0,1-1.887.989,4.89,4.89,0,0,1-3.887-.627,4.832,4.832,0,0,1-2.448-3.121,5.937,5.937,0,0,1,.466-3.448,40.992,40.992,0,0,1,2.612-5.166,43.927,43.927,0,0,1,3.158-4.874,5.846,5.846,0,0,1,2.781-2.137,5.215,5.215,0,0,1,6.305,3.638,6.237,6.237,0,0,1-.505,3.519,44.377,44.377,0,0,1-2.752,5.408Zm6.166,1.48A34.507,34.507,0,0,0,119,25.1a3.963,3.963,0,0,0,.347-2.2,2.536,2.536,0,0,0-.381-.981,2.5,2.5,0,0,0-.892-.815,2.643,2.643,0,0,0-1.169-.375,2.471,2.471,0,0,0-1.057.152,3.859,3.859,0,0,0-1.716,1.412,38.654,38.654,0,0,0-2.209,3.389Z" fill="#fff"/>
    <path id="Path_8" data-name="Path 8" d="M129.581,55.26a9.516,9.516,0,0,1-1.249-1.8,4,4,0,0,1-.436-2.086,4.683,4.683,0,0,1,.518-1.934,6.685,6.685,0,0,1,1.624-1.943l17.387-15.117,1.469,1.69L131.508,49.185a3.624,3.624,0,0,0-1.394,2.3,3.261,3.261,0,0,0,.976,2.464Z" fill="#fff"/>
    <path id="Path_9" data-name="Path 9" d="M14.651,124.466q-1.83.585-3.238.973A24.424,24.424,0,0,1,8.927,126a8.345,8.345,0,0,1-1.893.122,4.042,4.042,0,0,1-1.457-.353,4.1,4.1,0,0,1-2.346-2.608,3.732,3.732,0,0,1-.048-2.379,2.988,2.988,0,0,1,.339-.78,5.026,5.026,0,0,1,.489-.7l-1.524.488-.67-2.1,27.125-8.679.682,2.133L20.405,114.1a4.9,4.9,0,0,1,.781.275,2.873,2.873,0,0,1,.7.425,3.733,3.733,0,0,1,1.343,1.965,4.1,4.1,0,0,1-.4,3.486,4.592,4.592,0,0,1-1.019,1.145,8.371,8.371,0,0,1-1.612,1,24.586,24.586,0,0,1-2.353.984q-1.372.5-3.2,1.087m-.683-2.133q1.638-.525,2.807-.94t2-.786a7.453,7.453,0,0,0,1.338-.743,2.8,2.8,0,0,0,.781-.838,2.535,2.535,0,0,0,.379-.982,2.44,2.44,0,0,0-.1-1.165,2.6,2.6,0,0,0-1.309-1.6,3.709,3.709,0,0,0-2.959-.061l-9.41,3.011A3.628,3.628,0,0,0,5.116,120a2.813,2.813,0,0,0,.437,3.073,2.333,2.333,0,0,0,.859.586,2.8,2.8,0,0,0,1.123.228,7.452,7.452,0,0,0,1.521-.171q.887-.18,2.08-.519t2.832-.864" fill="#fff"/>
    <path id="Path_10" data-name="Path 10" d="M26.272,156.22l1.219-1.378a3.179,3.179,0,0,1-.92.254,3.75,3.75,0,0,1-.82.022,4.377,4.377,0,0,1-1.163-.255,3.834,3.834,0,0,1-1.194-.762,4.337,4.337,0,0,1-1.526-3.166,4.7,4.7,0,0,1,.462-1.941,9.2,9.2,0,0,1,1.6-2.379,7.8,7.8,0,0,1,2.051-1.684,4.81,4.81,0,0,1,2.285-.621,5.2,5.2,0,0,1,1.934.349,6.759,6.759,0,0,1,1.963,1.283l1.738,1.537,2.412-2.726a4.129,4.129,0,0,0,1.185-2.4,2.5,2.5,0,0,0-.976-2.066,2.45,2.45,0,0,0-.94-.538,2.817,2.817,0,0,0-.942-.112,3.255,3.255,0,0,0-1.293.4,5.265,5.265,0,0,0-1.278,1.112l-1.678-1.484A8.331,8.331,0,0,1,32.1,138.2a4.443,4.443,0,0,1,2.183-.686,4.571,4.571,0,0,1,1.8.258,5.242,5.242,0,0,1,1.736,1.056,4.761,4.761,0,0,1,1.878,3.37,4.884,4.884,0,0,1-.36,1.978,7.565,7.565,0,0,1-1.4,2.126L27.89,157.651Zm6.46-7.423-1.678-1.484a4.233,4.233,0,0,0-1.166-.765,3.12,3.12,0,0,0-1.275-.219,3.394,3.394,0,0,0-1.513.5,6.11,6.11,0,0,0-1.469,1.237,5.433,5.433,0,0,0-1.425,2.638,2.362,2.362,0,0,0,.9,2.24,2.582,2.582,0,0,0,2.307.653,4.2,4.2,0,0,0,2.348-1.448Z" fill="#fff"/>
    <path id="Path_11" data-name="Path 11" d="M63.79,153.616a3.933,3.933,0,0,0-3.045.379,3.876,3.876,0,0,0-1.71,2.579l-3.311,14.22-2.182-.508,4.618-19.829,2.143.5-.49,2.1a4.215,4.215,0,0,1,.606-.577,4.559,4.559,0,0,1,2.386-.985,6.342,6.342,0,0,1,1.934.163l-.481,2.065Z" fill="#fff"/>
    <path id="Path_12" data-name="Path 12" d="M88.167,151.98a3.936,3.936,0,0,0-2.573,1.673,3.875,3.875,0,0,0-.41,3.067l3.24,14.236-2.185.5L81.722,151.6l2.145-.489.479,2.107a4.188,4.188,0,0,1,.294-.785,3.891,3.891,0,0,1,.4-.685,4.035,4.035,0,0,1,1.317-1.244,6.294,6.294,0,0,1,1.81-.7l.47,2.067Z" fill="#fff"/>
    <path id="Path_13" data-name="Path 13" d="M117.361,143.793a41.82,41.82,0,0,1,3.5,4.483,6.422,6.422,0,0,1,1.179,3.216,5.218,5.218,0,0,1-5.675,4.934,6.418,6.418,0,0,1-3.02-1.615,53.952,53.952,0,0,1-7.454-8.572,6.419,6.419,0,0,1-1.179-3.215,5.131,5.131,0,0,1,5.675-4.935,6.438,6.438,0,0,1,3.02,1.614,41.914,41.914,0,0,1,3.953,4.09m-1.69,1.47q-2.152-2.475-3.43-3.67a4.885,4.885,0,0,0-2.341-1.383,2.475,2.475,0,0,0-2.113.618,2.638,2.638,0,0,0-.735.984,2.466,2.466,0,0,0-.2,1.049,4.776,4.776,0,0,0,1.059,2.5q1.02,1.419,3.173,3.893t3.4,3.668A4.742,4.742,0,0,0,116.8,154.3a2.452,2.452,0,0,0,1.067-.053,2.647,2.647,0,0,0,1.076-.591,2.478,2.478,0,0,0,.906-2.007,4.861,4.861,0,0,0-1.031-2.5q-.993-1.416-3.145-3.891" fill="#fff"/>
    <path id="Path_14" data-name="Path 14" d="M137.961,116.792a5.59,5.59,0,0,1,3.232,2.792,5.272,5.272,0,0,1,.224,4.176,5.037,5.037,0,0,1-2.563,3.057,5.287,5.287,0,0,1-2.312.521,7.588,7.588,0,0,1-2.37-.427l.724-2.12a5.472,5.472,0,0,0,1.686.321,3.217,3.217,0,0,0,1.489-.337,2.781,2.781,0,0,0,1.453-1.66,3.145,3.145,0,0,0-.122-2.493,3.406,3.406,0,0,0-2.088-1.684,4.023,4.023,0,0,0-2.263-.18,5.4,5.4,0,0,0-2.324,1.363l-2.152,1.971a8.882,8.882,0,0,1-1.665,1.165,5.357,5.357,0,0,1-1.458.559,5.473,5.473,0,0,1-2.6-.3,5.153,5.153,0,0,1-1.884-1.107,5.662,5.662,0,0,1-1.234-1.646,5.493,5.493,0,0,1,2.312-6.9,5.973,5.973,0,0,1,4.642.019l-.723,2.12a6.345,6.345,0,0,0-1.769-.391,3.038,3.038,0,0,0-1.317.269,2.561,2.561,0,0,0-.89.69,3.1,3.1,0,0,0-.512.945,2.865,2.865,0,0,0,.035,2.252,2.394,2.394,0,0,0,.821,1,4.445,4.445,0,0,0,1.166.609,3.434,3.434,0,0,0,1.795.189,2.143,2.143,0,0,0,.945-.417q.5-.356,1.1-.871l2.176-1.921a7.162,7.162,0,0,1,3.162-1.837,4.526,4.526,0,0,1,1.62-.1,7.933,7.933,0,0,1,1.667.378" fill="#fff"/>
    <path id="Path_15" data-name="Path 15" d="M8.148,82.4a4,4,0,1,1-4-4,4,4,0,0,1,4,4" fill="#fff"/>
    <path id="Path_16" data-name="Path 16" d="M144.707,82.4a4,4,0,1,1-4-4,4,4,0,0,1,4,4" fill="#fff"/>
  </g>
</svg>
