<svg xmlns="http://www.w3.org/2000/svg" width="143.69" height="26.684" viewBox="0 0 143.69 26.684">
  <g id="Group_4" data-name="Group 4" transform="translate(-320 -2660)">
    <path id="Icon_awesome-linkedin-in" data-name="Icon awesome-linkedin-in" d="M5.293,23.645H.391V7.859h4.9ZM2.839,5.706A2.852,2.852,0,1,1,5.678,2.84,2.863,2.863,0,0,1,2.839,5.706Zm20.8,17.94H18.748V15.961c0-1.831-.037-4.18-2.549-4.18-2.549,0-2.939,1.99-2.939,4.048v7.817h-4.9V7.859h4.7v2.153h.069a5.151,5.151,0,0,1,4.638-2.549c4.961,0,5.873,3.267,5.873,7.51v8.672Z" transform="translate(320 2661.999)" fill="#fff"/>
    <path id="Icon_awesome-behance" data-name="Icon awesome-behance" d="M13.229,14.527a4.327,4.327,0,0,0,2.76-4.219c0-4.026-3-5.006-6.46-5.006H0V25.509H9.8c3.672,0,7.122-1.762,7.122-5.867a4.869,4.869,0,0,0-3.689-5.115ZM4.442,8.751H8.61c1.6,0,3.045.45,3.045,2.309,0,1.716-1.123,2.406-2.708,2.406h-4.5Zm4.75,13.326H4.442V16.512H9.283c1.956,0,3.193.815,3.193,2.885,0,2.041-1.477,2.68-3.284,2.68ZM29.633,8.352H21.439V6.362h8.194ZM32.843,18.4c0-4.328-2.532-7.937-7.122-7.937-4.459,0-7.487,3.353-7.487,7.743,0,4.556,2.868,7.681,7.487,7.681,3.5,0,5.759-1.574,6.848-4.921H29.023c-.382,1.249-1.956,1.91-3.176,1.91-2.355,0-3.592-1.38-3.592-3.723H32.809C32.826,18.918,32.843,18.661,32.843,18.4ZM22.261,16.626A3.141,3.141,0,0,1,25.6,13.5c2.019,0,3.033,1.186,3.2,3.125Z" transform="translate(374 2657.698)" fill="#fff"/>
    <path id="Icon_awesome-instagram" data-name="Icon awesome-instagram" d="M13.343,8.738a6.841,6.841,0,1,0,6.841,6.841A6.831,6.831,0,0,0,13.343,8.738Zm0,11.289a4.448,4.448,0,1,1,4.448-4.448,4.456,4.456,0,0,1-4.448,4.448ZM22.06,8.458a1.6,1.6,0,1,1-1.6-1.6A1.592,1.592,0,0,1,22.06,8.458Zm4.531,1.62a7.9,7.9,0,0,0-2.155-5.591,7.949,7.949,0,0,0-5.591-2.155c-2.2-.125-8.806-.125-11.009,0A7.937,7.937,0,0,0,2.244,4.481,7.923,7.923,0,0,0,.089,10.072c-.125,2.2-.125,8.806,0,11.009a7.9,7.9,0,0,0,2.155,5.591,7.959,7.959,0,0,0,5.591,2.155c2.2.125,8.806.125,11.009,0a7.9,7.9,0,0,0,5.591-2.155,7.949,7.949,0,0,0,2.155-5.591c.125-2.2.125-8.8,0-11ZM23.745,23.445a4.5,4.5,0,0,1-2.537,2.537c-1.757.7-5.924.536-7.866.536s-6.115.155-7.866-.536a4.5,4.5,0,0,1-2.537-2.537c-.7-1.757-.536-5.924-.536-7.866s-.155-6.115.536-7.866A4.5,4.5,0,0,1,5.477,5.178c1.757-.7,5.924-.536,7.866-.536s6.115-.155,7.866.536a4.5,4.5,0,0,1,2.537,2.537c.7,1.757.536,5.924.536,7.866S24.441,21.695,23.745,23.445Z" transform="translate(437.005 2657.762)" fill="#fff"/>
  </g>
</svg>
