<?xml version="1.0" encoding="utf-8"?>
<!-- Generator: Adobe Illustrator 26.0.0, SVG Export Plug-In . SVG Version: 6.00 Build 0)  -->
<svg version="1.1" id="Layer_1" xmlns="http://www.w3.org/2000/svg" xmlns:xlink="http://www.w3.org/1999/xlink" x="0px" y="0px"
	 viewBox="0 0 281 30.74" style="enable-background:new 0 0 281 30.74;" xml:space="preserve">
<style type="text/css">
	.st0{fill:none;stroke:#FFFFFF;}
	.st1{enable-background:new    ;}
	.st2{fill:#FFFFFF;}
</style>
<g id="Group_7" transform="translate(-819.5 -3340)">
	<line id="Line_4" class="st0" x1="819.5" y1="3356.57" x2="925.5" y2="3356.57"/>
	<g class="st1">
		<path class="st2" d="M956.87,3344.08c-4.35,2.86-8.3,8.3-8.7,12.65c0.14,0,1.09-0.14,1.77-0.14c3.81,0,6.53,2.86,6.53,6.94
			c0,3.94-3.13,7.21-7.21,7.21c-4.49,0-8.43-3.67-8.43-10.34c0-8.3,4.76-15.91,11.02-20.4L956.87,3344.08z M978.63,3344.08
			c-4.35,2.86-8.16,8.3-8.7,12.65c0.14,0,1.09-0.14,1.77-0.14c3.81,0,6.66,2.86,6.66,6.94c0,3.94-3.26,7.21-7.34,7.21
			c-4.49,0-8.43-3.67-8.43-10.34c0-8.3,4.76-15.91,11.02-20.4L978.63,3344.08z"/>
	</g>
	<line id="Line_5" class="st0" x1="994.5" y1="3356.57" x2="1100.5" y2="3356.57"/>
</g>
</svg>
